<svg width="2294" height="450" viewBox="0 0 2294 450" fill="none" xmlns="http://www.w3.org/2000/svg">
<path d="M159.867 178.706C170.553 181.19 180.337 186.533 190.878 189.499C191.436 194.17 192.376 198.779 193.469 203.35C187.897 201.668 182.34 199.666 177.257 196.83C174.994 194.162 175.353 189.927 172.846 187.397C168.55 184.462 164.01 181.863 159.867 178.706Z" fill="#1E2217"/>
<path d="M88.7019 280.302C90.4676 277.046 90.9798 272.987 94.0297 270.571C92.6308 282.052 91.6218 293.732 93.4258 305.244C96.1547 319.416 96.4757 334.039 94.9011 348.363C95.0539 352.56 93.1812 356.458 93.1124 360.632C92.6155 360.517 91.6218 360.288 91.125 360.173C89.8637 352.85 86.7374 345.994 85.3997 338.678C84.4366 332.785 83.1371 326.884 83.2594 320.883C83.183 313.476 82.969 306.039 83.4964 298.647C85.1628 292.517 85.6902 286.004 88.7019 280.302Z" fill="#1E2217"/>
<path d="M243.411 236.028L252.01 216.25L240.831 220.263L239.111 221.696L238.251 224.276L236.245 232.875L243.411 236.028Z" fill="#8E908A"/>
<path d="M139.794 120.407C144.748 131.093 149.319 141.97 154.241 152.672C154.593 153.941 156.022 154.078 157.047 154.575C159.179 155.378 161.297 156.234 163.376 157.197C169.376 159.773 175.331 162.463 181.232 165.261C183.418 153.054 186.881 141.114 190.191 129.174C190.29 128.846 190.481 128.196 190.573 127.867C190.733 138.462 191.383 149.033 191.459 159.635C191.597 163.243 191.398 166.897 192.04 170.467C197.758 172.92 203.384 175.68 209.124 178.149C210.615 185.487 212.488 192.749 214.475 199.972C221.745 202.464 228.594 206.018 235.817 208.64C241.359 210.91 247.115 212.768 252.328 215.78C249.026 217.553 245.471 218.784 241.932 219.976L241.428 219.77C229.541 215.176 217.388 211.163 205.983 205.407C203.858 198.352 201.794 191.281 199.631 184.241C188.004 178.309 176.049 173.027 163.972 168.074C157.819 165.399 151.788 162.425 145.543 159.964C141.338 164.405 136.576 168.258 132.265 172.592C133.878 160.094 135.101 147.543 137.341 135.129C138.006 131.246 138.342 127.317 139.015 123.441C139.206 122.409 139.512 121.408 139.794 120.407Z" fill="#C8CDDA"/>
<path d="M152.842 220.305C161.74 212.157 174.558 209.008 186.322 211.308C181.973 213.77 177.868 217.072 175.682 221.674C172.892 227.078 172.961 233.911 176.248 239.086C178.067 242.029 180.918 244.108 183.616 246.18C178.128 246.31 172.64 246.371 167.151 246.264C165.049 246.333 163.169 245.385 161.396 244.391C163.398 247.265 165.592 250.124 168.634 251.989C175.216 256.163 182.585 258.861 189.594 262.209C191.589 268.882 192.82 275.762 194.318 282.565C196.344 291.08 197.804 299.71 199.416 308.317C201.549 320.861 201.732 334.115 197.605 346.284C196.718 335.254 195.495 323.957 190.748 313.821C189.319 310.824 188.295 307.667 187.11 304.579C188.707 318.568 187.362 332.808 184.182 346.483C181.507 355.572 178.709 364.783 173.733 372.923C175.269 362.596 175.567 352.01 173.809 341.69C171.531 330.064 167.526 318.598 160.738 308.806C156.121 301.85 150.648 295.544 145.145 289.284C141.3 285.164 137.531 280.876 134.741 275.953C131.477 269.945 129.184 263.425 127.961 256.706C127.159 252.005 127.449 247.227 127.518 242.488C129.421 252.18 136.637 259.908 144.885 264.862C138.823 250.254 140.857 231.351 152.842 220.305Z" fill="#C8CDDA"/>
<path d="M128.695 308.041C127.228 300.314 125.286 292.67 124.598 284.819C128.695 295.07 134.719 304.441 138.671 314.76C143.272 325.24 145.764 336.874 144.365 348.325C143.83 351.642 143.073 355.013 141.193 357.864C140.238 349.938 137.448 342.424 135.506 334.726C133.182 325.844 130.537 317.038 128.695 308.041Z" fill="#C8CDDA"/>
<path d="M93.3719 44.6475C127.15 19.6137 167.999 4.43292 209.819 0.565108C213.419 0.381655 217.142 -0.321588 220.704 0.572748C221.109 17.4505 220.75 34.3435 220.819 51.2288C206.983 51.6798 193.094 53.7896 179.977 58.3377C165.186 63.3444 150.671 69.4901 137.546 78.0283C123.405 86.9182 110.54 97.8872 99.6705 110.584C90.1768 121.094 82.7317 133.233 75.9209 145.6C66.6642 163.457 60.4803 182.857 57.4227 202.731C54.8926 218.966 55.5576 235.447 56.1309 251.805C55.5805 249.817 55.1678 247.792 54.8849 245.758C53.4555 247.822 52.1331 249.97 51.1929 252.309C50.4591 254.228 48.7469 255.481 47.264 256.788C47.8143 257.109 48.9227 257.744 49.4807 258.057C48.1201 258.287 46.7595 258.539 45.4142 258.822C45.2231 259.846 45.0396 260.893 44.7186 261.902C44.1453 263.034 42.8076 262.797 41.768 262.904C40.1475 266.427 37.8008 269.531 35.0261 272.229C27.2064 280.836 20.6326 290.46 13.134 299.334C8.43298 284.658 4.45051 269.661 2.66184 254.319C-0.701471 223.866 1.75223 192.717 10.4433 163.304C14.4717 147.97 21.0531 133.469 28.2307 119.382C37.1511 103.398 47.7532 88.317 60.0904 74.772C70.3332 63.8489 81.2105 53.4379 93.3719 44.6475Z" fill="#FF943B"/>
<path d="M277.628 261.184C289.698 259.212 302.662 262.048 312.446 269.501C319.035 274.767 323.889 282.274 325.922 290.468C328.338 301.957 326.503 314.409 320.442 324.514C316.62 330.445 311.598 335.842 305.268 339.114C297.747 342.89 289.086 345.091 280.663 343.776C283.506 343.302 286.342 342.752 289.216 342.477C288.895 341.59 288.567 340.719 288.23 339.855C287.458 340.337 286.701 340.833 285.937 341.33C285.845 339.587 285.738 337.852 285.57 336.125C286.09 335.437 286.579 334.726 287.114 334.069C283.59 332.8 279.868 332.181 276.413 330.728C271.299 328.68 266.659 325.339 263.204 321.043C257.402 312.971 255.53 302.301 257.953 292.685C258.457 290.193 259.482 287.815 259.719 285.285C259.52 282.61 256.523 282.289 254.62 281.318C254.391 280.095 254.383 278.841 254.368 277.611C253.489 277.55 252.61 277.504 251.738 277.473C257.693 268.828 267.416 263.156 277.628 261.184ZM296.493 271.48C295.438 273.292 294.521 275.363 295.171 277.504C297.403 279.491 300.545 280.149 302.692 282.312C306.362 285.278 308.456 289.551 310.619 293.632C311.995 296.545 317.025 294.917 316.666 291.828C316.979 287.028 314.304 282.618 311.162 279.224C308.074 276.151 304.741 273.162 300.751 271.335C299.39 270.533 297.877 271.152 296.493 271.48Z" fill="#FF943B"/>
<path d="M220.705 0C224.42 0.41277 228.165 0.183454 231.888 0.550361C233.378 0.672664 234.379 1.92626 235.557 2.71359C235.388 29.3678 235.656 56.0221 235.61 82.6764C230.665 82.684 225.711 82.684 220.766 82.6611C220.827 71.9902 220.75 61.327 220.819 50.6561C220.75 33.7707 221.11 16.8777 220.705 0Z" fill="#0F0F0F"/>
<path d="M298.841 49.0205C327.383 32.7314 363.615 31.6001 393.571 44.7399C410.365 52.2539 425.194 64.0102 436.66 78.3731C427.006 88.6924 416.725 98.4078 407.04 108.696C402.691 103.789 398.548 98.66 393.594 94.3412C383.443 85.2373 370.418 78.9464 356.69 78.1438C344.811 77.1271 332.581 79.3744 322.177 85.2985C316.001 88.8682 310.398 93.4621 305.819 98.9428C297.984 108.979 293.734 121.645 293.643 134.357C293.253 145.563 295.768 156.929 301.394 166.668C306.492 175.466 313.242 183.416 321.65 189.217C332.413 197.144 344.849 202.227 356.514 208.625C369.959 215.528 383.489 222.797 394.573 233.238C404.808 242.564 412.849 254.305 417.711 267.284C424.415 283.933 425.5 302.4 423.092 320.05C421.51 333.152 416.411 345.535 410.38 357.161C405.939 366.219 399.549 374.085 393.097 381.767C379.53 397.322 362.667 409.69 344.811 419.872C311.69 438.439 273.952 448.468 236.031 449.5C235.947 433.967 236.038 418.435 235.962 402.902C242.559 402.933 249.117 402.084 255.66 401.312C273.394 398.996 291.059 395.06 307.532 387.974C321.306 381.836 334.683 374.444 346.149 364.561C353.708 357.872 360.672 350.412 366.084 341.843C368.927 337.845 371.267 333.519 373.086 328.955C378.482 317.658 379.988 304.632 378.07 292.303C376.182 280.447 369.699 269.585 360.687 261.75C349.81 251.668 335.998 245.782 322.98 239.063C307.646 231.427 292.404 222.934 279.991 210.972C270.558 201.616 262.502 190.639 257.594 178.225C251.242 163.243 248.429 146.794 249.293 130.543C249.713 123.22 250.149 115.79 252.419 108.758C253.833 104.416 255.041 99.9977 256.738 95.7477C259.238 90.2976 262.486 85.2373 265.567 80.1006C269.702 73.0071 275.351 66.9073 281.481 61.4954C287.008 57.0084 292.489 52.3227 298.841 49.0205Z" fill="#0F0F0F"/>
<path d="M330.838 136.13C338 127.118 344.238 117.364 351.92 108.757C354.457 111.738 356.942 114.765 359.464 117.769C354.649 124.42 349.871 131.131 344.337 137.208C349.55 143.621 354.947 149.912 359.694 156.692C356.621 159.146 354.557 162.532 352.126 165.567C345.247 157.181 339.147 148.192 332.718 139.463C332.023 138.393 331.06 137.422 330.838 136.13Z" fill="#E8792E"/>
<path d="M374.026 138.194C366.864 147.206 360.626 156.959 352.944 165.566C350.406 162.585 347.922 159.558 345.4 156.554C350.215 149.904 354.993 143.193 360.527 137.116C355.314 130.703 349.917 124.412 345.17 117.632C348.243 115.178 350.307 111.792 352.738 108.757C359.617 117.142 365.717 126.132 372.146 134.861C372.841 135.931 373.804 136.902 374.026 138.194Z" fill="#FF943B"/>
<path d="M175.682 221.673C177.868 217.072 181.973 213.769 186.322 211.308C203.88 213.915 220.552 220.351 237.804 224.31C237.697 224.792 237.49 225.747 237.383 226.221C236.963 228.461 236.076 230.632 236.115 232.948C238.759 233.751 241.221 235.042 243.56 236.51C240.487 239.82 237.552 243.305 234.119 246.248C218.656 246.485 203.177 246.256 187.706 246.455C186.345 246.386 184.916 246.615 183.616 246.18C180.918 244.108 178.067 242.029 176.248 239.086C172.961 233.911 172.892 227.077 175.682 221.673Z" fill="#DEE0E7"/>
<path d="M296.494 271.481C297.877 271.152 299.391 270.533 300.751 271.335C304.741 273.162 308.074 276.151 311.162 279.224C314.304 282.618 316.979 287.028 316.666 291.829C317.025 294.917 311.995 296.545 310.619 293.633C308.456 289.551 306.362 285.278 302.693 282.312C300.545 280.149 297.403 279.491 295.171 277.504C294.521 275.364 295.439 273.292 296.494 271.481Z" fill="#0F0F0F"/>
<path d="M124.743 153.986C129.505 143.805 133.946 133.463 139.014 123.441C138.342 127.317 138.005 131.246 137.34 135.129C135.101 147.543 133.878 160.094 132.265 172.592C136.576 168.258 141.338 164.405 145.542 159.964C151.787 162.425 157.818 165.399 163.972 168.074C176.049 173.027 188.004 178.309 199.63 184.241C201.794 191.281 203.857 198.352 205.982 205.407C217.387 211.163 229.541 215.176 241.427 219.77C238.591 220.748 238.178 223.729 237.383 226.221C237.49 225.747 237.697 224.792 237.804 224.31C220.552 220.351 203.88 213.915 186.322 211.308C174.558 209.007 161.74 212.156 152.842 220.305C140.856 231.35 138.823 250.254 144.885 264.861C136.637 259.908 129.421 252.18 127.518 242.487C127.449 247.227 127.159 252.004 127.961 256.705C129.184 263.424 131.477 269.944 134.741 275.952C134.336 279.835 136.629 283.336 137.623 286.975C141.223 297.875 148.042 307.231 152.75 317.619C158.506 330.086 162.603 343.677 162.221 357.528C162.305 367.702 161.388 378.006 158.002 387.66C153.599 398.056 147.163 407.45 139.656 415.851C138.173 417.196 137.279 419.757 135.108 419.994C126.715 415.538 119.469 409.331 112.421 403.024C106.596 398.148 102.109 391.956 97.0645 386.338C89.6958 377.647 83.2291 368.161 78.4669 357.788C72.7416 346.521 67.7043 334.849 64.341 322.641C62.6058 316.519 61.8567 310.189 60.9471 303.914C58.2718 307.415 58.3176 312.139 57.4691 316.297C56.7047 325.699 56.7812 335.277 58.8298 344.526C62.1625 364.316 72.2295 382.401 84.9031 397.735C91.1099 406.197 98.7538 413.443 106.612 420.346C110.403 423.732 113.996 427.401 118.299 430.16C118.36 430.374 118.49 430.795 118.552 431.009C112.306 434.846 105.679 438.095 98.6544 440.227C90.0933 442.628 81.1805 443.766 72.2907 443.568C57.5991 443.591 43.2362 438.538 30.8302 430.871C19.1732 423.052 9.67187 411.823 4.61161 398.683C2.45603 393.34 0.652071 387.76 0.0940667 382.011C-0.0588112 372.823 0.00998155 363.636 0.0558449 354.448C-0.097033 351.497 3.02933 350.045 4.6269 347.988C13.9295 337.899 22.5518 327.205 31.9691 317.214C42.3724 305.229 53.1351 293.564 63.6913 281.716C71.8091 272.581 78.4516 262.308 85.484 252.356C92.9292 241.264 100.925 230.563 108.614 219.647C112.666 213.739 117.619 208.472 121.349 202.342C112.918 206.148 105.863 212.317 97.5461 216.307C94.1216 217.897 90.7889 219.663 87.3644 221.245C91.194 215.612 94.9777 209.955 98.6697 204.237C104.578 196.494 112.475 190.608 119.4 183.836C118.842 182.857 118.292 181.879 117.749 180.908C117.718 182.032 117.68 183.163 117.634 184.294C116.19 183.714 116.136 182.177 115.876 180.893C115.433 177.95 114.707 174.74 116.197 171.965C119.071 165.98 121.762 159.91 124.743 153.986ZM159.867 178.707C164.01 181.864 168.55 184.463 172.846 187.398C175.353 189.928 174.994 194.163 177.257 196.83C182.34 199.666 187.897 201.669 193.469 203.351C192.376 198.78 191.436 194.17 190.878 189.5C180.337 186.534 170.553 181.191 159.867 178.707ZM88.7021 280.302C85.6904 286.004 85.163 292.517 83.4966 298.647C82.9692 306.039 83.1832 313.476 83.2596 320.883C83.1373 326.884 84.4368 332.785 85.3999 338.678C86.7376 345.993 89.864 352.85 91.1252 360.173C91.6221 360.287 92.6158 360.517 93.1126 360.631C93.1814 356.458 95.0542 352.56 94.9013 348.363C96.4759 334.038 96.1549 319.416 93.426 305.244C91.6221 293.732 92.6311 282.052 94.0299 270.571C90.98 272.987 90.4678 277.045 88.7021 280.302ZM128.695 308.041C130.537 317.038 133.182 325.844 135.506 334.726C137.447 342.424 140.237 349.938 141.193 357.864C143.073 355.013 143.83 351.642 144.365 348.325C145.764 336.874 143.272 325.24 138.67 314.76C134.718 304.441 128.695 295.07 124.598 284.819C125.286 292.67 127.227 300.314 128.695 308.041Z" fill="#455566"/>
<path d="M220.812 362.94C225.734 362.673 230.657 362.894 235.587 362.833C235.48 376.187 235.052 389.564 235.962 402.903C236.038 418.435 235.947 433.967 236.031 449.5C223.739 449.599 211.387 449.477 199.241 447.413C181.629 444.47 163.819 440.686 147.835 432.462C152.46 425.949 157.987 420.163 163.36 414.269C169.017 408.223 173.985 401.488 180.1 395.893C184.434 396.719 188.662 398.064 192.996 398.928C202.046 400.808 211.264 401.634 220.452 402.444C220.812 389.274 220.613 376.103 220.812 362.94Z" fill="#455566"/>
<path d="M251.739 277.473C252.61 277.504 253.489 277.55 254.368 277.611C254.384 278.842 254.391 280.095 254.621 281.318C256.524 282.289 259.52 282.61 259.719 285.285C259.482 287.815 258.458 290.193 257.953 292.685C255.53 302.301 257.403 312.972 263.205 321.043C266.66 325.339 271.3 328.68 276.413 330.728C279.868 332.181 283.591 332.8 287.115 334.069C286.58 334.726 286.091 335.437 285.571 336.125C285.739 337.852 285.846 339.588 285.938 341.33C286.702 340.834 287.459 340.337 288.231 339.855C288.567 340.719 288.896 341.59 289.217 342.477C286.343 342.752 283.507 343.303 280.663 343.776C269.778 342.92 259.528 336.943 252.916 328.32C245.761 319.461 242.994 307.606 244.179 296.4C244.806 289.551 247.795 283.191 251.441 277.458L251.739 277.473Z" fill="#E8792E"/>
<path d="M675.557 339.662C656.576 339.662 640.037 335.166 625.94 326.175C611.954 317.073 601.076 304.086 593.306 287.214C585.536 270.342 581.651 250.085 581.651 226.442C581.651 202.022 585.647 181.542 593.639 165.003C601.742 148.353 612.842 135.81 626.939 127.374C641.147 118.827 657.353 114.554 675.557 114.554C700.754 114.554 720.401 120.659 734.498 132.869C748.706 145.079 757.808 160.952 761.804 180.488L719.846 188.147C716.405 176.825 710.91 167.667 703.362 160.674C695.814 153.681 686.546 150.185 675.557 150.185C665.9 150.185 657.186 153.015 649.416 158.676C641.646 164.226 635.43 172.662 630.768 183.984C626.217 195.306 623.942 209.459 623.942 226.442C623.942 242.426 625.94 256.19 629.936 267.734C634.043 279.278 639.926 288.158 647.585 294.374C655.244 300.59 664.568 303.698 675.557 303.698C689.654 303.698 700.532 299.979 708.191 292.542C715.961 284.994 719.846 275.393 719.846 263.738H761.804C761.804 279.833 758.307 293.541 751.314 304.863C744.432 316.074 734.553 324.677 721.677 330.671C708.801 336.665 693.428 339.662 675.557 339.662Z" fill="#0F0F0F"/>
<path d="M848.314 338.996C833.995 338.996 821.23 335.832 810.019 329.505C798.919 323.178 790.15 313.799 783.712 301.367C777.274 288.935 774.055 273.617 774.055 255.413C774.055 237.098 777.274 221.78 783.712 209.459C790.15 197.027 798.919 187.647 810.019 181.32C821.23 174.993 833.995 171.83 848.314 171.83C862.522 171.83 875.176 174.993 886.276 181.32C897.487 187.647 906.256 197.027 912.583 209.459C919.021 221.78 922.24 237.098 922.24 255.413C922.24 273.617 919.021 288.935 912.583 301.367C906.256 313.799 897.487 323.178 886.276 329.505C875.176 335.832 862.522 338.996 848.314 338.996ZM847.648 316.352C857.971 316.352 866.74 313.91 873.955 309.026C881.17 304.031 886.609 296.982 890.272 287.88C894.046 278.778 895.933 267.956 895.933 255.413C895.933 236.432 891.992 221.502 884.111 210.624C876.23 199.635 864.52 194.141 848.98 194.141C838.546 194.141 829.721 196.638 822.506 201.633C815.402 206.517 809.963 213.566 806.189 222.779C802.526 231.881 800.695 242.759 800.695 255.413C800.695 274.172 804.635 289.046 812.516 300.035C820.508 310.913 832.219 316.352 847.648 316.352Z" fill="#0F0F0F"/>
<path d="M1009.78 338.996C996.901 338.996 985.08 335.555 974.313 328.673C963.546 321.68 954.943 311.912 948.505 299.369C942.067 286.715 938.848 271.841 938.848 254.747C938.848 237.764 942.012 223.056 948.339 210.624C954.666 198.192 963.046 188.646 973.48 181.986C984.025 175.215 995.569 171.83 1008.11 171.83C1019.77 171.83 1029.98 174.66 1038.75 180.321C1047.63 185.982 1054.51 194.141 1059.39 204.797C1064.28 215.453 1066.72 228.329 1066.72 243.425H1056.73C1056.73 232.88 1054.62 224 1050.4 216.785C1046.3 209.57 1040.91 204.131 1034.25 200.468C1027.59 196.694 1020.43 194.807 1012.77 194.807C1004.12 194.807 996.18 197.249 988.965 202.133C981.861 206.906 976.144 213.788 971.815 222.779C967.597 231.659 965.488 242.315 965.488 254.747C965.488 267.401 967.597 278.279 971.815 287.381C976.144 296.483 981.861 303.476 988.965 308.36C996.18 313.244 1004.12 315.686 1012.77 315.686C1019.99 315.686 1026.93 313.799 1033.59 310.025C1040.36 306.251 1045.91 300.756 1050.24 293.541C1054.57 286.215 1056.73 277.391 1056.73 267.068H1066.72C1066.72 282.497 1064.17 295.595 1059.06 306.362C1054.07 317.018 1047.24 325.121 1038.58 330.671C1030.03 336.221 1020.43 338.996 1009.78 338.996ZM1061.06 335L1056.73 297.704V107.894H1082.7V335H1061.06Z" fill="#0F0F0F"/>
<path d="M1185.53 338.996C1171.76 338.996 1159.44 335.499 1148.56 328.506C1137.8 321.402 1129.25 311.579 1122.92 299.036C1116.71 286.493 1113.6 272.063 1113.6 255.746C1113.6 238.319 1116.71 223.334 1122.92 210.791C1129.14 198.248 1137.63 188.646 1148.4 181.986C1159.27 175.215 1171.65 171.83 1185.53 171.83C1197.62 171.83 1207.95 174.272 1216.49 179.156C1225.04 184.04 1231.92 190.644 1237.14 198.969C1242.36 207.294 1245.97 216.729 1247.96 227.274C1250.07 237.708 1250.68 248.531 1249.79 259.742H1134.58V243.758H1232.65L1224.99 248.753C1225.32 242.204 1224.93 235.655 1223.82 229.106C1222.82 222.557 1220.88 216.563 1217.99 211.124C1215.11 205.574 1211.06 201.134 1205.84 197.804C1200.62 194.474 1193.96 192.809 1185.86 192.809C1175.65 192.809 1167.1 195.417 1160.22 200.634C1153.34 205.851 1148.17 212.733 1144.73 221.28C1141.29 229.716 1139.57 238.874 1139.57 248.753V259.409C1139.57 270.509 1141.24 280.443 1144.57 289.212C1148.01 297.981 1153.11 304.919 1159.88 310.025C1166.66 315.131 1175.2 317.684 1185.53 317.684C1195.85 317.684 1204.34 315.186 1211 310.191C1217.66 305.196 1221.71 297.815 1223.15 288.047H1250.13C1248.46 298.592 1244.69 307.694 1238.81 315.353C1232.92 322.901 1225.43 328.728 1216.33 332.835C1207.23 336.942 1196.96 338.996 1185.53 338.996Z" fill="#0F0F0F"/>
<path d="M1353.91 339.662C1338.93 339.662 1325.11 337.053 1312.46 331.836C1299.91 326.619 1289.7 318.683 1281.82 308.027C1274.05 297.371 1269.89 283.829 1269.33 267.401H1307.96C1307.96 275.726 1310.01 282.552 1314.12 287.88C1318.23 293.208 1323.72 297.204 1330.6 299.868C1337.6 302.421 1345.26 303.698 1353.58 303.698C1361.57 303.698 1368.68 302.643 1374.89 300.534C1381.22 298.425 1386.16 295.428 1389.71 291.543C1393.37 287.547 1395.21 282.83 1395.21 277.391C1395.21 270.176 1392.99 264.515 1388.55 260.408C1384.22 256.301 1377.22 252.527 1367.57 249.086L1324.94 232.103C1308.29 225.554 1295.53 217.95 1286.65 209.292C1277.77 200.634 1273.33 188.702 1273.33 173.495C1273.33 155.957 1280.27 141.749 1294.14 130.871C1308.02 119.993 1327.39 114.554 1352.25 114.554C1376.45 114.554 1395.15 120.215 1408.36 131.537C1421.57 142.748 1429.06 158.399 1430.84 178.49H1392.21C1390.77 169.943 1386.88 163.116 1380.55 158.01C1374.23 152.793 1364.79 150.185 1352.25 150.185C1341.15 150.185 1332.38 152.516 1325.94 157.178C1319.5 161.729 1316.29 167.501 1316.29 174.494C1316.29 180.488 1318.28 185.261 1322.28 188.813C1326.39 192.254 1332.71 195.584 1341.26 198.803L1388.55 217.118C1404.53 223.334 1416.8 231.159 1425.34 240.594C1433.89 250.029 1438.16 261.851 1438.16 276.059C1438.16 289.046 1434.89 300.312 1428.34 309.858C1421.79 319.293 1412.24 326.619 1399.7 331.836C1387.16 337.053 1371.9 339.662 1353.91 339.662Z" fill="#0F0F0F"/>
<path d="M1545.95 338.996C1534.3 338.996 1524.14 336.332 1515.48 331.004C1506.94 325.676 1500.33 317.906 1495.67 307.694C1491.01 297.371 1488.68 284.828 1488.68 270.065H1499.67C1499.67 279.944 1501.72 288.269 1505.83 295.04C1509.93 301.811 1515.26 306.972 1521.81 310.524C1528.47 313.965 1535.52 315.686 1542.96 315.686C1550.95 315.686 1558.61 313.41 1565.93 308.859C1573.26 304.197 1579.25 297.371 1583.92 288.38C1588.58 279.389 1590.91 268.289 1590.91 255.08C1590.91 242.426 1588.74 231.603 1584.42 222.612C1580.2 213.621 1574.48 206.739 1567.27 201.966C1560.05 197.193 1552.06 194.807 1543.29 194.807C1535.74 194.807 1528.64 196.638 1521.98 200.301C1515.32 203.964 1509.93 209.348 1505.83 216.452C1501.72 223.445 1499.67 232.103 1499.67 242.426H1488.68C1488.68 226.997 1491.23 214.065 1496.34 203.631C1501.44 193.086 1508.38 185.15 1517.15 179.822C1525.92 174.494 1535.74 171.83 1546.62 171.83C1559.05 171.83 1570.65 175.16 1581.42 181.82C1592.19 188.48 1600.9 198.026 1607.56 210.458C1614.22 222.89 1617.55 237.764 1617.55 255.08C1617.55 272.618 1614.16 287.658 1607.39 300.201C1600.73 312.744 1591.96 322.346 1581.09 329.006C1570.21 335.666 1558.5 338.996 1545.95 338.996ZM1473.69 413.255V175.826H1495.34L1499.67 213.122V413.255H1473.69Z" fill="#0F0F0F"/>
<path d="M1663.16 138.197C1657.83 138.197 1653.61 136.698 1650.5 133.701C1647.39 130.593 1645.84 126.542 1645.84 121.547C1645.84 116.663 1647.39 112.778 1650.5 109.892C1653.61 107.006 1657.83 105.563 1663.16 105.563C1668.48 105.563 1672.7 107.006 1675.81 109.892C1678.92 112.778 1680.47 116.663 1680.47 121.547C1680.47 126.542 1678.92 130.593 1675.81 133.701C1672.7 136.698 1668.48 138.197 1663.16 138.197ZM1650.17 335V175.493H1676.14V335H1650.17Z" fill="#0F0F0F"/>
<path d="M1727.71 335V175.493H1753.68V335H1727.71ZM1745.69 263.072C1745.69 242.87 1747.63 226.109 1751.52 212.789C1755.4 199.358 1761.06 189.368 1768.5 182.819C1776.05 176.159 1785.21 172.829 1795.97 172.829C1799.53 172.829 1802.75 173.106 1805.63 173.661C1808.63 174.105 1811.63 174.827 1814.62 175.826L1812.96 201.467C1809.85 200.468 1806.46 199.635 1802.8 198.969C1799.14 198.192 1795.86 197.804 1792.98 197.804C1783.54 197.804 1775.94 200.523 1770.17 205.962C1764.39 211.29 1760.18 218.838 1757.51 228.606C1754.96 238.374 1753.68 249.863 1753.68 263.072H1745.69Z" fill="#0F0F0F"/>
<path d="M1842.7 138.197C1837.38 138.197 1833.16 136.698 1830.05 133.701C1826.94 130.593 1825.39 126.542 1825.39 121.547C1825.39 116.663 1826.94 112.778 1830.05 109.892C1833.16 107.006 1837.38 105.563 1842.7 105.563C1848.03 105.563 1852.25 107.006 1855.36 109.892C1858.47 112.778 1860.02 116.663 1860.02 121.547C1860.02 126.542 1858.47 130.593 1855.36 133.701C1852.25 136.698 1848.03 138.197 1842.7 138.197ZM1829.72 335V175.493H1855.69V335H1829.72Z" fill="#0F0F0F"/>
<path d="M1956.21 338.996C1947.55 338.996 1939.78 337.331 1932.9 334.001C1926.02 330.671 1920.58 325.676 1916.58 319.016C1912.58 312.356 1910.59 304.031 1910.59 294.041V131.537H1936.23V293.375C1936.23 309.803 1943.89 318.017 1959.2 318.017C1963.76 318.017 1968.14 317.517 1972.36 316.518C1976.69 315.519 1981.52 314.021 1986.84 312.023L1990.51 330.671C1984.85 333.113 1979.18 335.111 1973.52 336.665C1967.97 338.219 1962.2 338.996 1956.21 338.996ZM1884.95 193.808V175.826H1986.51V193.808H1884.95Z" fill="#0F0F0F"/>
<path d="M2067.75 338.996C2053.99 338.996 2041.67 335.499 2030.79 328.506C2020.02 321.402 2011.48 311.579 2005.15 299.036C1998.93 286.493 1995.83 272.063 1995.83 255.746C1995.83 238.319 1998.93 223.334 2005.15 210.791C2011.37 198.248 2019.86 188.646 2030.62 181.986C2041.5 175.215 2053.88 171.83 2067.75 171.83C2079.85 171.83 2090.18 174.272 2098.72 179.156C2107.27 184.04 2114.15 190.644 2119.37 198.969C2124.59 207.294 2128.19 216.729 2130.19 227.274C2132.3 237.708 2132.91 248.531 2132.02 259.742H2016.81V243.758H2114.87L2107.21 248.753C2107.55 242.204 2107.16 235.655 2106.05 229.106C2105.05 222.557 2103.11 216.563 2100.22 211.124C2097.34 205.574 2093.28 201.134 2088.07 197.804C2082.85 194.474 2076.19 192.809 2068.09 192.809C2057.88 192.809 2049.33 195.417 2042.45 200.634C2035.56 205.851 2030.4 212.733 2026.96 221.28C2023.52 229.716 2021.8 238.874 2021.8 248.753V259.409C2021.8 270.509 2023.47 280.443 2026.8 289.212C2030.24 297.981 2035.34 304.919 2042.11 310.025C2048.88 315.131 2057.43 317.684 2067.75 317.684C2078.08 317.684 2086.57 315.186 2093.23 310.191C2099.89 305.196 2103.94 297.815 2105.38 288.047H2132.36C2130.69 298.592 2126.92 307.694 2121.03 315.353C2115.15 322.901 2107.66 328.728 2098.56 332.835C2089.45 336.942 2079.19 338.996 2067.75 338.996Z" fill="#0F0F0F"/>
<path d="M2220.49 338.996C2207.62 338.996 2195.79 335.555 2185.03 328.673C2174.26 321.68 2165.66 311.912 2159.22 299.369C2152.78 286.715 2149.56 271.841 2149.56 254.747C2149.56 237.764 2152.73 223.056 2159.05 210.624C2165.38 198.192 2173.76 188.646 2184.2 181.986C2194.74 175.215 2206.28 171.83 2218.83 171.83C2230.48 171.83 2240.69 174.66 2249.46 180.321C2258.34 185.982 2265.23 194.141 2270.11 204.797C2274.99 215.453 2277.44 228.329 2277.44 243.425H2267.45C2267.45 232.88 2265.34 224 2261.12 216.785C2257.01 209.57 2251.63 204.131 2244.97 200.468C2238.31 196.694 2231.15 194.807 2223.49 194.807C2214.83 194.807 2206.89 197.249 2199.68 202.133C2192.58 206.906 2186.86 213.788 2182.53 222.779C2178.31 231.659 2176.2 242.315 2176.2 254.747C2176.2 267.401 2178.31 278.279 2182.53 287.381C2186.86 296.483 2192.58 303.476 2199.68 308.36C2206.89 313.244 2214.83 315.686 2223.49 315.686C2230.7 315.686 2237.64 313.799 2244.3 310.025C2251.07 306.251 2256.62 300.756 2260.95 293.541C2265.28 286.215 2267.45 277.391 2267.45 267.068H2277.44C2277.44 282.497 2274.88 295.595 2269.78 306.362C2264.78 317.018 2257.95 325.121 2249.3 330.671C2240.75 336.221 2231.15 338.996 2220.49 338.996ZM2271.77 335L2267.45 297.704V107.894H2293.42V335H2271.77Z" fill="#0F0F0F"/>
</svg>
